<svg width="122" height="103" viewBox="0 0 122 103" fill="none" xmlns="http://www.w3.org/2000/svg">
<path fill-rule="evenodd" clip-rule="evenodd" d="M53.595 0.559718L53.6096 0.57832C54.9791 0.723012 56.2537 1.06625 57.4105 1.58379C59.8939 2.69437 61.6771 4.48503 62.9345 6.278C63.8193 5.30839 64.9423 4.43375 66.3612 3.84501C68.8349 2.81881 71.8102 2.85484 75.005 3.96944L75.0092 3.97091L78.4246 5.14161L76.0434 11.9765L72.635 10.7764L72.6328 10.7756C70.6582 10.0867 69.6793 10.2879 69.1326 10.5144C68.5715 10.7476 68.0793 11.2112 67.6211 12.0287C67.5064 12.2339 67.4036 12.4495 67.311 12.672C83.7331 14.8872 97.3671 25.9315 103.278 40.8607H105.36C114.524 40.8607 121.954 48.3124 121.954 57.4698C121.954 66.6277 114.524 74.0837 105.36 74.0837H103.278C96.6504 90.8215 80.3156 102.681 61.2292 102.681C42.142 102.681 25.8029 90.8215 19.1759 74.0837H17.0968C7.93414 74.0837 0.5 66.6272 0.5 57.4698C0.5 48.3118 7.93451 40.8607 17.0968 40.8607H19.176C25.4401 25.042 40.3783 13.5891 58.1112 12.3774C57.8649 11.8174 57.5651 11.2417 57.1981 10.6822C56.4566 9.55153 55.549 8.67672 54.4556 8.18714C53.3849 7.70817 51.9315 7.44548 49.5834 8.08039L49.5805 8.08118L46.0872 9.04078L44.2164 2.04981L47.692 1.11675L47.6937 1.11629C49.5318 0.619726 51.2807 0.431227 52.9159 0.522012L53.595 0.559718ZM22.9858 47.7845C23.0081 47.7 23.0304 47.6156 23.0524 47.531C23.0304 47.6156 23.0081 47.7 22.9858 47.7845ZM23.7643 45.0439C23.7574 45.0749 23.7504 45.1066 23.7418 45.1375C23.7504 45.1066 23.7574 45.0749 23.7643 45.0439ZM98.7178 69.8058C98.7179 69.8055 98.718 69.8051 98.7181 69.8048H98.7163L98.718 69.8054L98.7178 69.8058ZM99.047 54.2085C99.1379 55.2748 99.2073 56.3129 99.2099 57.3562C99.21 57.4102 99.2122 57.4589 99.213 57.4788L99.2132 57.4828L99.2137 57.4947C99.2123 58.6204 99.1392 59.7428 99.0377 60.8823C98.9963 61.3308 98.9364 61.7767 98.8716 62.2589L98.8716 62.2593L98.8431 62.4718L98.8428 62.4738C98.77 63.0247 98.6875 63.569 98.5929 64.1075C98.4732 64.7746 98.3484 65.4222 98.2005 66.0555L98.2 66.0579C98.1343 66.341 98.0616 66.6191 97.9826 66.9212L97.9377 67.0933C97.7318 67.8727 97.5308 68.6126 97.2922 69.3336L97.0023 70.2098C91.7724 84.9309 77.7594 95.4549 61.2309 95.4549C44.5452 95.4549 30.4291 84.7284 25.3187 69.7888C25.2876 69.6275 25.2456 69.468 25.1924 69.3111C24.5833 67.4877 24.1272 65.6168 23.8016 63.7148C23.7642 63.4893 23.7292 63.2611 23.6956 63.0303L23.694 63.0201C23.5755 62.2443 23.4779 61.4705 23.4085 60.6984C23.3163 59.6028 23.2444 58.5384 23.2444 57.4701V57.4544C23.2453 56.3377 23.3167 55.2274 23.4157 54.0961C23.4641 53.56 23.5367 53.0209 23.6147 52.4435L23.6154 52.4383C23.6862 51.8999 23.7677 51.3658 23.8607 50.8385C23.9826 50.158 24.1121 49.4949 24.2649 48.8426L24.2658 48.8384C24.3158 48.6222 24.37 48.4172 24.4307 48.1877C24.4541 48.0995 24.4784 48.0076 24.5037 47.9101C24.7129 47.1117 24.9196 46.3512 25.1653 45.6113L25.2418 45.381V45.3517C30.2952 30.3068 44.4704 19.485 61.2312 19.485H61.6063C78.1343 19.6455 92.0825 30.3349 97.1489 45.1726C97.1767 45.3165 97.2129 45.4563 97.2561 45.5917L97.2592 45.6014L97.2624 45.6111C97.8638 47.4115 98.3166 49.2644 98.6416 51.1457C98.6912 51.4435 98.7372 51.7422 98.7796 52.0419L98.781 52.0511C98.889 52.7814 98.9826 53.4968 99.047 54.2085ZM7.7264 57.4694C7.7264 52.2644 11.8118 48.1386 16.9974 48.0858C16.3563 51.1143 16.0188 54.2534 16.0188 57.4693L16.0188 57.4988C16.0212 60.7041 16.3581 63.8333 16.9974 66.8529C11.8117 66.8001 7.7264 62.6743 7.7264 57.4694ZM114.73 57.4693C114.73 62.675 110.647 66.8002 105.462 66.8529C106.103 63.8241 106.44 60.6845 106.44 57.4693V57.439C106.438 54.2339 106.101 51.105 105.462 48.0858C110.647 48.1385 114.73 52.2637 114.73 57.4693ZM43.2159 66.4078L41.5948 63.1826L35.1433 66.3833L36.7403 69.6272L36.7424 69.6316C41.3575 78.929 50.85 84.8108 61.2282 84.8108C71.604 84.8108 81.0978 78.9238 85.7137 69.632L87.3086 66.4003L80.8621 63.1778L79.2372 66.4195L79.2349 66.4242C75.8347 73.2675 68.8688 77.5858 61.2272 77.5858C53.5841 77.5858 46.6158 73.2567 43.2159 66.4078Z" fill="#FF6600"/>
</svg>
