<svg width="34" height="32" viewBox="0 0 34 32" fill="none" xmlns="http://www.w3.org/2000/svg">
<path d="M18.1485 1.81616C16.2539 1.81616 14.6926 3.37753 14.6926 5.27202V14.608C14.1218 13.8446 13.5009 13.2607 12.7726 13.0601C11.7741 12.785 10.8797 13.1429 10.2768 13.4922C9.54848 14.0707 8.91234 14.5207 8.65678 15.448C8.41678 16.3231 8.59383 17.2638 9.01678 18.3521C11.041 23.2022 13.4932 27.9042 16.5164 31.3725C16.7307 31.6189 17.0538 31.767 17.3806 31.7684H27.7486C27.9931 31.7676 28.2366 31.6864 28.4327 31.5404C29.6354 30.6496 30.5335 29.2055 31.2885 27.5084C32.0437 25.8115 32.6128 23.8457 32.9085 21.9284C33.2043 20.011 33.2265 18.1149 32.7885 16.5525C32.3434 14.9636 31.1685 13.5415 29.4165 13.3366C29.1197 13.3281 28.8001 13.3766 28.5406 13.4087C28.3148 12.9748 28.0113 12.6263 27.6765 12.3887C27.0189 11.9221 26.3696 11.7914 25.8044 11.8008C25.3989 11.8074 25.0306 11.9454 24.6765 12.1366C24.5348 11.9674 24.4204 11.7517 24.2565 11.6325C23.6008 11.1563 22.9271 11.0325 22.3726 11.0325C22.1101 11.0325 21.8573 11.0724 21.6047 11.1284V5.27229C21.6047 3.37745 20.0433 1.81642 18.1488 1.81642L18.1485 1.81616ZM18.1485 4.1203C18.8066 4.1203 19.3006 4.61423 19.3006 5.27237V13.3364C19.2987 13.8565 19.6933 14.3513 20.2008 14.4651C20.7084 14.579 21.2766 14.2996 21.4965 13.8284C21.9154 13.2847 22.3512 13.297 22.9006 13.4925C23.038 13.5924 23.1406 13.6498 23.1406 14.1046C23.139 14.6199 23.5264 15.1109 24.0278 15.2293C24.5292 15.3477 25.0955 15.082 25.3245 14.6205C25.624 13.9988 25.8192 14.0746 26.3445 14.2725C26.502 14.3842 26.5966 14.4397 26.5966 14.8725C26.5995 15.3155 26.8829 15.7444 27.2893 15.9212C27.6956 16.098 28.2024 16.0125 28.5286 15.7125C28.5415 15.738 29.0416 15.5759 29.2245 15.6405C29.9383 15.7484 30.2876 16.1558 30.5804 17.1884C30.8838 18.2584 30.9031 19.8769 30.6404 21.5805C30.3776 23.2838 29.8384 25.0846 29.1765 26.5725C28.5757 27.9228 27.8524 28.9315 27.2565 29.4646H17.9568C15.8092 26.5559 10.8535 18.7325 10.8768 16.0726C11.1881 15.5607 11.6732 15.2286 12.161 15.2805C12.772 15.5888 12.9238 15.9054 13.2889 16.5647L14.8128 19.6126C15.0421 20.0741 15.6081 20.3398 16.1095 20.2214C16.6109 20.103 16.9982 19.6121 16.9966 19.0967V5.27272C16.9966 4.6146 17.4906 4.12066 18.1487 4.12066L18.1485 4.1203Z" fill="#FF6600"/>
<path d="M0.86853 4.88606C0.873084 4.58499 1.00755 4.24454 1.20442 4.06993L4.66028 0.613789C5.0768 0.241199 5.89779 0.120664 6.34028 0.566378C6.78251 1.01182 6.75332 1.8331 6.28028 2.24583L4.79235 3.73404H11.2365C11.8726 3.73404 12.3886 4.24993 12.3886 4.8861C12.3886 5.52226 11.8727 6.03817 11.2365 6.03817H4.79235L6.28028 7.52638C6.75305 7.93941 6.82537 8.79413 6.34028 9.20583C5.88975 9.58833 5.05272 9.61324 4.66028 9.15842L1.20442 5.70228C0.957454 5.45853 0.877369 5.19577 0.86853 4.88615V4.88606Z" fill="#FF6600"/>
</svg>
