<svg width="16" height="16" viewBox="0 0 16 16" fill="none" xmlns="http://www.w3.org/2000/svg">
<path d="M5.49967 1.33331V14.6666M14.6663 5.91665H1.33301M14.6663 10.5H1.33301M3.99967 14.6666H11.9997C12.9331 14.6666 13.3998 14.6666 13.7563 14.485C14.0699 14.3252 14.3249 14.0702 14.4847 13.7566C14.6663 13.4001 14.6663 12.9334 14.6663 12V3.99998C14.6663 3.06656 14.6663 2.59985 14.4847 2.24333C14.3249 1.92973 14.0699 1.67476 13.7563 1.51497C13.3998 1.33331 12.9331 1.33331 11.9997 1.33331H3.99967C3.06625 1.33331 2.59954 1.33331 2.24302 1.51497C1.92942 1.67476 1.67445 1.92973 1.51466 2.24333C1.33301 2.59985 1.33301 3.06656 1.33301 3.99998V12C1.33301 12.9334 1.33301 13.4001 1.51466 13.7566C1.67445 14.0702 1.92942 14.3252 2.24302 14.485C2.59954 14.6666 3.06625 14.6666 3.99967 14.6666Z" stroke="#FF6600" stroke-width="2" stroke-linecap="round" stroke-linejoin="round"/>
</svg>
