<svg width="100" height="100" viewBox="0 0 100 100" fill="none" xmlns="http://www.w3.org/2000/svg">
<path d="M43.9769 12.4049C19.6937 12.4049 0 32.0613 0 56.107C0 80.3439 19.694 100 43.9769 100C68.2598 100 87.9538 80.3436 87.9538 56.107C87.9538 45.6105 84.3206 35.8784 77.6295 27.8632L92.3525 13.1682V24.8094C92.3525 26.9087 94.0731 28.6259 96.1763 28.6259C98.2796 28.6259 100 26.9086 100 24.8094V3.81644C100 1.71714 98.2795 0 96.1763 0H75.1432C73.0398 0 71.3194 1.71724 71.3194 3.81644C71.3194 5.91574 73.0399 7.63288 75.1432 7.63288H86.8066L72.0835 22.3278C64.2438 16.0312 54.3009 12.4052 43.9766 12.4052L43.9769 12.4049ZM43.9769 92.3664C23.9002 92.3664 7.64816 76.1444 7.64816 56.107C7.64816 36.0686 23.9012 19.8476 43.9769 19.8476C64.0537 19.8476 80.3057 36.0696 80.3057 56.107C80.1149 76.1441 64.054 92.3664 43.9769 92.3664Z" fill="#FF6600"/>
</svg>
