<svg width="122" height="103" viewBox="0 0 122 103" fill="none" xmlns="http://www.w3.org/2000/svg">
<path d="M99.6612 66.3965C99.8178 65.726 99.9479 65.0489 100.07 64.3708C100.169 63.8078 100.254 63.241 100.33 62.6704C100.339 62.6007 100.349 62.5311 100.358 62.4614C100.423 61.9805 100.487 61.4998 100.532 61.0162M99.6612 66.3965L98.6852 45.1359C99.3132 47.0164 99.7838 48.9449 100.121 50.8952M99.6612 66.3965C99.5905 66.7019 99.5116 67.0033 99.4327 67.3052C99.418 67.3613 99.4033 67.4174 99.3887 67.4735M99.6612 66.3965L62.4663 18.0022L63.3982 18.735H61.61M100.532 61.0162C100.635 59.8515 100.713 58.6764 100.714 57.4844M100.532 61.0162L99.7848 60.9475M100.532 61.0162L99.7847 60.9497C99.7847 60.949 99.7848 60.9483 99.7848 60.9475M100.714 57.4844C100.714 57.4401 100.71 57.3967 100.71 57.3524M100.714 57.4844H99.9637M100.714 57.4844L99.9637 57.4838C99.9637 57.484 99.9637 57.4842 99.9637 57.4844M100.71 57.3524C100.707 56.2462 100.634 55.1588 100.541 54.0762M100.71 57.3524H99.9599C99.9599 57.353 99.9599 57.3536 99.9599 57.3543M100.71 57.3524L99.9599 57.3543M100.541 54.0762C100.473 53.3245 100.375 52.5776 100.265 51.8316C100.22 51.5185 100.172 51.2064 100.121 50.8952M100.541 54.0762L99.7938 54.14C99.7939 54.1403 99.7939 54.1406 99.7939 54.1409M100.541 54.0762L99.7942 54.1436C99.7941 54.1427 99.794 54.1418 99.7939 54.1409M100.121 50.8952L99.3807 51.0184C99.3809 51.0193 99.381 51.0202 99.3812 51.0211M100.121 50.8952L99.3814 51.0227C99.3814 51.0222 99.3813 51.0217 99.3812 51.0211M99.3812 51.0211C99.0503 49.1051 98.5886 47.2142 97.9738 45.3735L97.9706 45.3638L97.9706 45.3638C97.9312 45.2401 97.8994 45.1129 97.8764 44.9824M99.3812 51.0211C99.4319 51.3254 99.4789 51.6306 99.5222 51.9368L99.5229 51.9414C99.632 52.679 99.7278 53.4097 99.7939 54.1409M97.8764 44.9824C92.725 29.8249 78.4868 18.8973 61.61 18.735M97.8764 44.9824C97.8724 44.9595 97.8686 44.9364 97.8652 44.9133L97.8569 44.858V44.802V44.8011H98.6069L98.6041 44.802L98.6019 44.8028L97.8964 45.0413C97.8897 45.0217 97.8831 45.002 97.8764 44.9824ZM99.7939 54.1409C99.8857 55.2159 99.9572 56.2791 99.9599 57.3543M99.9599 57.3543C99.96 57.3926 99.9615 57.4281 99.9624 57.4478L99.9625 57.4506C99.9636 57.4751 99.9637 57.481 99.9637 57.4844M99.9637 57.4844C99.9628 58.6445 99.8875 59.7943 99.7848 60.9475M99.7848 60.9475C99.7419 61.4143 99.6796 61.8781 99.6147 62.3605C99.6053 62.4303 99.5959 62.5005 99.5865 62.5711L99.5863 62.5721C99.5122 63.1328 99.4281 63.6884 99.3312 64.2391M99.3312 64.2391C99.2106 64.9117 99.0831 65.5741 98.9309 66.226L98.9306 66.2272C98.8624 66.5217 98.7865 66.8116 98.7075 67.1139C98.6928 67.1701 98.678 67.2266 98.6631 67.2838M99.3312 64.2391C99.3311 64.2397 99.331 64.2403 99.3309 64.2409L100.069 64.3708L99.3314 64.2384C99.3313 64.2386 99.3313 64.2389 99.3312 64.2391ZM98.6631 67.2838C98.4569 68.0642 98.2508 68.824 98.0042 69.5692L97.7118 70.453M98.6631 67.2838C98.6632 67.2832 98.6634 67.2826 98.6636 67.282L99.3887 67.4735M98.6631 67.2838C98.663 67.284 98.663 67.2842 98.6629 67.2844L99.3887 67.4735M97.7118 70.453C92.3812 85.4677 78.0899 96.2049 61.2309 96.2049C44.1947 96.2049 29.7867 85.2395 24.5911 69.9789M97.7118 70.453L97.6781 70.5548H98.4712C93.0796 85.9371 78.4733 96.9549 61.2309 96.9549C43.8432 96.9549 29.1426 85.7493 23.8625 70.166H23.8616M97.7118 70.453C97.7983 70.2093 97.8824 69.9645 97.9642 69.7186C97.9748 69.6755 97.9871 69.6302 98.0017 69.583L98.6889 69.7958L98.7163 69.8042V69.0548H98.7181H98.9511C99.1071 68.5303 99.249 68.0024 99.3887 67.4735M24.5911 69.9789C24.5657 69.8339 24.5293 69.691 24.4818 69.5512M24.5911 69.9789C24.5956 70.0048 24.5998 70.0308 24.6036 70.0569L23.8632 70.1658L23.8625 70.1659L23.8616 70.166M24.5911 69.9789C24.585 69.961 24.5789 69.9432 24.5729 69.9253L24.4503 69.5637L24.4824 69.553C24.4822 69.5524 24.482 69.5518 24.4818 69.5512M24.4818 69.5512C23.8589 67.6869 23.3937 65.7771 23.0621 63.8396M24.4818 69.5512C24.4815 69.5503 24.4812 69.5494 24.4809 69.5485L24.4489 69.5594L24.4003 69.416H23.8625H23.8616V69.7598L23.7716 69.7905L23.8616 69.7604V70.166M23.0621 63.8396C23.0235 63.6075 22.9876 63.3736 22.9534 63.1384L22.9526 63.1333C22.8321 62.3442 22.7323 61.5541 22.6613 60.7634M23.0621 63.8396C23.0622 63.8402 23.0623 63.8408 23.0624 63.8414L22.3225 63.9643M23.0621 63.8396C23.062 63.839 23.0618 63.8384 23.0617 63.8378L22.3225 63.9643M22.6613 60.7634C22.5685 59.661 22.4944 58.571 22.4944 57.4701V57.4538M22.6613 60.7634C22.6614 60.7641 22.6614 60.7648 22.6615 60.7655L21.9141 60.8284M22.6613 60.7634C22.6612 60.7627 22.6612 60.7621 22.6611 60.7614L21.9141 60.8284M22.4944 57.4538C22.4953 56.3059 22.5688 55.1712 22.6687 54.0292M22.4944 57.4538L21.7444 57.4532M22.4944 57.4538V57.4532H21.7444M22.6687 54.0292C22.7189 53.4736 22.7938 52.9179 22.8715 52.3431L22.8718 52.3405C22.944 51.7917 23.0272 51.2465 23.1222 50.7075M22.6687 54.0292C22.6687 54.0295 22.6687 54.0298 22.6686 54.0302L21.9217 53.9628M22.6687 54.0292C22.6688 54.0289 22.6688 54.0286 22.6688 54.0283L21.9217 53.9628M23.1222 50.7075C23.2454 50.0197 23.3776 49.342 23.5346 48.6716L23.5351 48.6695C23.5879 48.441 23.6464 48.2199 23.7083 47.986C23.7311 47.8995 23.7545 47.8113 23.7781 47.7203M23.1222 50.7075C23.1222 50.7078 23.1221 50.7081 23.122 50.7085L22.3838 50.5762M23.1222 50.7075C23.1223 50.7072 23.1223 50.7068 23.1224 50.7065L22.3838 50.5762M23.7781 47.7203C23.9879 46.9199 24.1996 46.1394 24.4536 45.3748L24.4918 45.2597V45.2298M23.7781 47.7203C23.7782 47.7202 23.7782 47.72 23.7782 47.7199L23.0535 47.5313L23.7779 47.7211C23.778 47.7209 23.7781 47.7206 23.7781 47.7203ZM24.4918 45.2298C29.6103 29.8282 44.0949 18.735 61.2312 18.735H61.61M24.4918 45.2298V45.2274C24.4936 45.2195 24.4952 45.2124 24.4965 45.2063L24.4985 45.1974L24.4918 45.1959V45.1384V45.1375H24.2289L23.7663 45.0347M24.4918 45.2298C24.4913 45.2314 24.4907 45.233 24.4902 45.2347C24.4837 45.2634 24.4748 45.3008 24.4645 45.3382L23.7452 45.1384L23.7418 45.1375M61.61 18.735C61.4839 18.7338 61.3576 18.7332 61.2312 18.7332C61.2304 18.7332 61.2297 18.7332 61.2289 18.7332V17.988L60.7676 18.5746L60.7653 18.5727L60.0403 18.0026C43.0781 18.5036 28.8527 29.6728 23.7663 45.0347M23.7663 45.0347L23.7643 45.0439C23.7574 45.0749 23.7504 45.1066 23.7418 45.1375M23.7663 45.0347L24.0768 45.1375H23.7418M23.7418 45.1375V45.1384C23.4796 45.9278 23.2627 46.7285 23.0524 47.531C23.0304 47.6156 23.0081 47.7 22.9858 47.7845C22.9229 48.0221 22.8601 48.2598 22.8044 48.5005C22.6431 49.189 22.5083 49.8812 22.3838 50.5762M22.3838 50.5762C22.2866 51.127 22.2018 51.6834 22.1282 52.2427C22.0509 52.8151 21.9735 53.3876 21.9217 53.9628M21.9217 53.9628C21.8208 55.1153 21.7453 56.2743 21.7444 57.4532M21.7444 57.4532V57.4701C21.7444 58.6037 21.8208 59.7193 21.9141 60.8284M21.9141 60.8284C21.9867 61.6377 22.0886 62.444 22.2112 63.2466C22.2461 63.4861 22.2829 63.7257 22.3225 63.9643M22.3225 63.9643C22.6601 65.9372 23.1345 67.8856 23.7711 69.7907C23.8126 69.9123 23.8427 70.0377 23.8616 70.166M53.218 1.29492L53.2139 1.28971L52.8743 1.27085C51.3262 1.1849 49.6571 1.36264 47.8882 1.84063C47.8881 1.84067 47.8879 1.84072 47.8877 1.84077L45.8584 2.38554L45.1347 2.57985L45.3284 3.30378L46.4214 7.38827L46.6166 8.11758L47.3446 7.91759L49.3845 7.35721C49.385 7.35708 49.3856 7.35694 49.3861 7.3568C51.8809 6.68194 53.5143 6.94439 54.7621 7.50262C56.0218 8.06664 57.0296 9.05764 57.8253 10.2709L57.8253 10.271C58.4427 11.2122 58.8781 12.1892 59.1909 13.0672C41.127 13.8855 25.854 25.5019 19.6888 41.6107H17.0968C8.34955 41.6107 1.25 48.7252 1.25 57.4698C1.25 66.2141 8.34948 73.3337 17.0968 73.3337H19.6888C26.0836 90.045 42.2807 101.931 61.2292 101.931C80.1768 101.931 96.3696 90.0451 102.765 73.3337H105.36C114.108 73.3337 121.204 66.2149 121.204 57.4698C121.204 48.7255 114.109 41.6107 105.36 41.6107H102.765C96.9483 26.4097 83.0239 15.2048 66.2937 13.3013C66.4624 12.7415 66.6781 12.1781 66.9671 11.6617C67.4782 10.7499 68.0812 10.1391 68.845 9.82169C69.6016 9.50811 70.7767 9.33347 72.8815 10.068C72.8817 10.0681 72.8819 10.0682 72.8821 10.0683L74.873 10.7693L75.5827 11.0192L75.8303 10.3086L77.2204 6.31848L77.4684 5.60667L76.7553 5.36226L74.7619 4.67899C74.7613 4.67875 74.7606 4.67851 74.7599 4.67827C71.6932 3.60793 68.913 3.59837 66.6486 4.53776L66.9357 5.22974L66.6486 4.53778C64.9941 5.22426 63.7678 6.33848 62.864 7.53658C62.7799 7.39952 62.6931 7.26253 62.6035 7.12587C61.3878 5.2723 59.6213 3.39401 57.1042 2.26839C55.9361 1.7458 54.6327 1.41011 53.218 1.29492ZM16.7688 57.4982C16.7714 60.973 17.1737 64.356 17.9329 67.6035H17.0982C11.4495 67.6035 6.9764 63.1211 6.9764 57.4694C6.9764 51.8176 11.4495 47.3353 17.0982 47.3353H17.8482V47.3352H17.9329C17.1718 50.5913 16.7688 53.9841 16.7688 57.4693V57.4854V57.4976L16.7688 57.4982ZM105.69 57.4395C105.687 53.965 105.285 50.5823 104.527 47.3352H105.362C111.01 47.3352 115.48 51.8172 115.48 57.4693C115.48 63.1214 111.01 67.6034 105.362 67.6034H104.527C105.288 64.3471 105.69 60.9537 105.69 57.4693V57.4523V57.4401V57.4395ZM41.5949 64.8527L41.2598 64.186L40.5914 64.5176L36.8162 66.3906L36.1464 66.7229L36.4767 67.3937L37.4131 69.2959L37.4142 69.2981C41.9026 78.3402 51.1347 84.0608 61.2282 84.0608C71.3192 84.0608 80.5527 78.3352 85.042 69.2983L85.0428 69.2966L85.9756 67.4066L86.3058 66.7375L85.6383 66.4039L81.867 64.5186L81.1969 64.1837L80.8612 64.8534L79.9077 66.7556L79.9065 66.758C76.3797 73.8562 69.1536 78.3358 61.2272 78.3358C53.2986 78.3358 46.0704 73.8448 42.5442 66.7413L42.5425 66.738L41.5949 64.8527Z" fill="#FF6600" stroke="#FF6600" stroke-width="1.5"/>
</svg>
