<svg width="88" height="123" viewBox="0 0 88 123" fill="none" xmlns="http://www.w3.org/2000/svg">
<path d="M44.0003 0C19.7042 0 0 19.7956 0 44.2037C0 67.2662 17.7908 86.2934 40.1742 88.2153V98.0166H26.7832C24.6787 98.0166 22.9574 99.746 22.9574 101.86C22.9574 103.974 24.6788 105.704 26.7832 105.704H40.1742V119.157C40.1742 121.271 41.8957 123 44 123C46.1043 123 47.8258 121.271 47.8258 119.157V105.704H61.2168C63.3213 105.704 65.0426 103.974 65.0426 101.86C65.0426 99.7459 63.3212 98.0166 61.2168 98.0166H47.8258V88.2153C70.3992 86.2928 88 67.2669 88 44.2037C88 19.7952 68.2955 0 43.9997 0H44.0003ZM44.0003 80.7199C23.9129 80.7199 7.65223 64.383 7.65223 44.2037C7.65223 24.0234 23.9139 7.68761 44.0003 7.68761C64.0878 7.68761 80.3485 24.0245 80.3485 44.2037C80.3485 64.383 64.0881 80.7199 44.0003 80.7199Z" fill="#FF6600"/>
</svg>
